<?xml version="1.0" encoding="UTF-8" standalone="no"?>
<svg
   xmlns:dc="http://purl.org/dc/elements/1.1/"
   xmlns:cc="http://creativecommons.org/ns#"
   xmlns:rdf="http://www.w3.org/1999/02/22-rdf-syntax-ns#"
   xmlns:svg="http://www.w3.org/2000/svg"
   xmlns="http://www.w3.org/2000/svg"
   xmlns:sodipodi="http://sodipodi.sourceforge.net/DTD/sodipodi-0.dtd"
   xmlns:inkscape="http://www.inkscape.org/namespaces/inkscape"
   width="290"
   height="147"
   xml:space="preserve"
   version="1.1"
   id="svg3843"
   inkscape:version="0.48.1 "
   sodipodi:docname="reebok complete logo red.svg"><defs
   id="defs3873" /><sodipodi:namedview
   pagecolor="#ffffff"
   bordercolor="#666666"
   borderopacity="1"
   objecttolerance="10"
   gridtolerance="10"
   guidetolerance="10"
   inkscape:pageopacity="0"
   inkscape:pageshadow="2"
   inkscape:window-width="1280"
   inkscape:window-height="657"
   id="namedview3871"
   showgrid="false"
   inkscape:zoom="2.3885548"
   inkscape:cx="145.55125"
   inkscape:cy="68.110522"
   inkscape:window-x="-8"
   inkscape:window-y="-8"
   inkscape:window-maximized="1"
   inkscape:current-layer="svg3843" />
 <metadata
   id="metadata3845"><rdf:RDF><cc:Work
       rdf:about=""><dc:format>image/svg+xml</dc:format><dc:type
         rdf:resource="http://purl.org/dc/dcmitype/StillImage" /></cc:Work></rdf:RDF></metadata>

 <g
   id="g3847"
   style="fill:#e41d1b;fill-opacity:1"
   transform="matrix(0.31933308,0,0,0.31933308,1.99911,2.3313186)">
  <title
   id="title3849">Layer 1</title>
  <g
   id="svg_1"
   transform="matrix(4.16667,0,0,4.16667,-181.171,-182.779)"
   style="fill:#e41d1b;fill-opacity:1">
   <path
   id="svg_2"
   d="m 181.2,118.3 c 23.6,-9.4 38.3,-14.8 77.3,-24.3 -21.2,1.4 -67.9,4.5 -100.1,10.9 -0.1,-0.1 22.3,13.1 22.8,13.4 z"
   class="st0"
   style="fill:#e41d1b;fill-opacity:1"
   inkscape:connector-curvature="0" />
  </g>
  <g
   id="svg_3"
   transform="matrix(4.16667,0,0,4.16667,-181.171,-182.779)"
   style="fill:#e41d1b;fill-opacity:1">
   <path
   id="svg_4"
   d="m 107.8,149.6 30.9,0 c 6,-9.2 12.3,-13.8 19.2,-18.8 -5.3,-2.1 -10.7,-4.1 -16.2,-6 -19.7,8.6 -30.7,20.2 -33.9,24.8 z"
   class="st0"
   style="fill:#e41d1b;fill-opacity:1"
   inkscape:connector-curvature="0" />
  </g>
  <g
   id="svg_5"
   transform="matrix(4.16667,0,0,4.16667,-181.171,-182.779)"
   style="fill:#e41d1b;fill-opacity:1">
   <path
   id="svg_6"
   d="m 113.9,115.9 c -27.5,9.8 -42.8,20.6 -53.1,33.7 l 34,0 c 3.3,-4.7 16,-18 39.8,-27.2 -6.7,-2.3 -18,-5.8 -20.7,-6.5 z"
   class="st0"
   style="fill:#e41d1b;fill-opacity:1"
   inkscape:connector-curvature="0" />
  </g>
  <g
   id="svg_7"
   transform="matrix(4.16667,0,0,4.16667,-181.171,-182.779)"
   style="fill:#e41d1b;fill-opacity:1">
   <path
   id="svg_8"
   d="m 128.1,95.1 -75.3,0 c 75.9,13.8 112.5,31.5 171.5,56.4 -5.2,-3.7 -86.4,-51.5 -96.2,-56.4 z"
   class="st1"
   style="fill:#e41d1b;fill-opacity:1"
   inkscape:connector-curvature="0" />
  </g>
  <g
   id="svg_9"
   transform="matrix(4.16667,0,0,4.16667,-181.171,-182.779)"
   style="fill:#e41d1b;fill-opacity:1">
   <path
   id="svg_10"
   d="m 208.6,51.4 c -10,0 -16.6,5.9 -16.6,14.7 0,8.4 7.2,14.7 16.6,14.7 9.8,0 16.7,-6.1 16.7,-14.7 0,-8.8 -6.7,-14.7 -16.7,-14.7 z m 0,22.2 c -4.2,0 -7.5,-3.4 -7.5,-7.5 0,-4.1 3.4,-7.5 7.5,-7.5 4.1,0 7.5,3.4 7.5,7.5 0,4.1 -3.3,7.5 -7.5,7.5 z"
   class="st0"
   style="fill:#e41d1b;fill-opacity:1"
   inkscape:connector-curvature="0" />
  </g>
  <g
   id="svg_11"
   transform="matrix(4.16667,0,0,4.16667,-181.171,-182.779)"
   style="fill:#e41d1b;fill-opacity:1">
   <path
   id="svg_12"
   d="m 175.1,51.8 -6,0 0,7.6 4.1,0 c 3.3,0 6,2.9 6,6.4 0,4.3 -3.5,6.4 -5.8,6.5 l -7.4,0 0,-28.4 -9.2,0 0,36 16.6,0 c 7.3,0 15.2,-5.5 15.2,-13.8 -0.2,-8.9 -7,-14.3 -13.5,-14.3 z"
   class="st0"
   style="fill:#e41d1b;fill-opacity:1"
   inkscape:connector-curvature="0" />
  </g>
  <g
   id="svg_13"
   transform="matrix(4.16667,0,0,4.16667,-181.171,-182.779)"
   style="fill:#e41d1b;fill-opacity:1">
   <path
   id="svg_14"
   d="m 92.1,65.8 c 0,-3.6 2.9,-6.5 6.4,-6.5 l 7.3,0 -5.9,9.9 8.8,0 5.9,-9.2 0,-8.1 -17.6,0 c -7.7,0 -13.9,6.3 -13.9,14 0,7.7 6.2,14 13.9,14 l 17.6,0 0,-7.6 -16.1,0 c -3.5,0 -6.4,-2.9 -6.4,-6.5 z"
   class="st0"
   style="fill:#e41d1b;fill-opacity:1"
   inkscape:connector-curvature="0" />
  </g>
  <g
   id="svg_15"
   transform="matrix(4.16667,0,0,4.16667,-181.171,-182.779)"
   style="fill:#e41d1b;fill-opacity:1">
   <path
   id="svg_16"
   d="m 65.9,43.9 -22.4,0 0,36 8.9,0 0,-28.1 11.6,0 c 3.2,0 6.6,1.7 6.6,6.4 0,3.6 -2.6,6.4 -6.1,6.4 l -8.9,0 0,7.5 6.3,0 c 5.4,0.2 7.7,2.7 7.8,8 l 0,7.7 9.4,0 0,-10.3 c 0,-5.4 -3.8,-8.2 -7.5,-9.1 5.8,-2 8.7,-6.5 8.7,-12 C 80,48.7 72.7,43.9 65.9,43.9 z"
   class="st0"
   style="fill:#e41d1b;fill-opacity:1"
   inkscape:connector-curvature="0" />
  </g>
  <g
   id="svg_17"
   transform="matrix(4.16667,0,0,4.16667,-181.171,-182.779)"
   style="fill:#e41d1b;fill-opacity:1">
   <path
   id="svg_18"
   d="m 250.1,64.9 c 6.2,-1.9 8,-5.3 8,-12.1 l 0,-1 -9.1,0 0,1.5 c 0,4.5 -1.9,7.8 -6.2,7.8 l -4.3,0 0,-17.2 -9.2,0 0,36 9.2,0 0,-11.2 3.3,0 c 4.6,0 7.4,2.6 7.4,6.8 l 0,4.4 9.2,0 0,-4.1 c 0,-5.4 -2.4,-9.3 -8.3,-10.9 z"
   class="st0"
   style="fill:#e41d1b;fill-opacity:1"
   inkscape:connector-curvature="0" />
  </g>
  <g
   id="svg_19"
   transform="matrix(4.16667,0,0,4.16667,-181.171,-182.779)"
   style="fill:#e41d1b;fill-opacity:1">
   <path
   id="svg_20"
   d="m 128,65.8 c 0,-3.6 2.9,-6.5 6.4,-6.5 l 7.3,0 -5.9,9.8 8.8,0 5.9,-9.2 0,-8.1 -17.6,0 c -7.7,0 -13.9,6.3 -13.9,14 0,7.7 6.2,14 13.9,14 l 17.6,0 0,-7.6 -16.2,0 c -3.4,0.1 -6.3,-2.8 -6.3,-6.4 z"
   class="st0"
   style="fill:#e41d1b;fill-opacity:1"
   inkscape:connector-curvature="0" />
  </g>
 </g>
</svg>