<svg xmlns="http://www.w3.org/2000/svg" xmlns:xlink="http://www.w3.org/1999/xlink" width="500" zoomAndPan="magnify" viewBox="0 0 375 374.999991" height="500" preserveAspectRatio="xMidYMid meet" version="1.0"><defs><g/><clipPath id="97b787ff4f"><rect x="0" width="87" y="0" height="177"/></clipPath><clipPath id="3058cc4f2b"><rect x="0" width="87" y="0" height="176"/></clipPath><clipPath id="8e9b41bbdc"><rect x="0" width="69" y="0" height="36"/></clipPath></defs><g transform="matrix(1, 0, 0, 1, 160, 123)"><g clip-path="url(#97b787ff4f)"><g fill="#000000" fill-opacity="1"><g transform="translate(1.866908, 123.47974)"><g><path d="M 81.828125 -5.9375 C 81.828125 -0.113281 80.894531 5.175781 79.03125 9.9375 C 77.175781 14.707031 74.53125 18.78125 71.09375 22.15625 C 67.664062 25.53125 63.566406 28.144531 58.796875 30 C 54.023438 31.863281 48.734375 32.796875 42.921875 32.796875 C 37.679688 32.796875 32.675781 31.984375 27.90625 30.359375 C 23.144531 28.734375 18.957031 26.378906 15.34375 23.296875 C 11.738281 20.210938 8.859375 16.457031 6.703125 12.03125 C 4.554688 7.613281 3.484375 2.613281 3.484375 -2.96875 C 3.484375 -8.3125 4.414062 -12.898438 6.28125 -16.734375 C 8.144531 -20.578125 10.675781 -23.75 13.875 -26.25 C 17.070312 -28.757812 20.820312 -30.625 25.125 -31.84375 C 29.425781 -33.0625 34.019531 -33.671875 38.90625 -33.671875 L 38.90625 -32.96875 C 34.71875 -32.738281 30.847656 -31.722656 27.296875 -29.921875 C 23.753906 -28.117188 20.734375 -25.765625 18.234375 -22.859375 C 15.734375 -19.953125 13.785156 -16.632812 12.390625 -12.90625 C 10.992188 -9.1875 10.296875 -5.234375 10.296875 -1.046875 C 10.296875 3.722656 11.078125 8.054688 12.640625 11.953125 C 14.210938 15.847656 16.394531 19.191406 19.1875 21.984375 C 21.976562 24.773438 25.351562 26.925781 29.3125 28.4375 C 33.269531 29.945312 37.628906 30.703125 42.390625 30.703125 C 51.816406 30.703125 59.175781 27.9375 64.46875 22.40625 C 69.757812 16.882812 72.40625 9.414062 72.40625 0 C 72.40625 -5 71.269531 -9.5625 69 -13.6875 C 66.726562 -17.820312 63.878906 -21.71875 60.453125 -25.375 C 57.023438 -29.039062 53.300781 -32.5625 49.28125 -35.9375 C 45.269531 -39.3125 41.546875 -42.6875 38.109375 -46.0625 C 34.679688 -49.4375 31.832031 -52.925781 29.5625 -56.53125 C 27.300781 -60.132812 26.171875 -64.03125 26.171875 -68.21875 C 26.171875 -71.238281 26.722656 -73.96875 27.828125 -76.40625 C 28.929688 -78.851562 30.441406 -80.890625 32.359375 -82.515625 C 34.285156 -84.148438 36.523438 -85.398438 39.078125 -86.265625 C 41.640625 -87.140625 44.375 -87.578125 47.28125 -87.578125 C 48.445312 -87.578125 49.582031 -87.460938 50.6875 -87.234375 C 51.789062 -87.003906 52.863281 -86.769531 53.90625 -86.53125 L 58.265625 -85.140625 C 60.597656 -84.441406 62.8125 -84.09375 64.90625 -84.09375 C 66.53125 -84.09375 67.804688 -84.734375 68.734375 -86.015625 L 67.515625 -65.78125 C 67.054688 -68.101562 66.242188 -70.484375 65.078125 -72.921875 C 63.910156 -75.367188 62.425781 -77.582031 60.625 -79.5625 C 58.820312 -81.539062 56.785156 -83.195312 54.515625 -84.53125 C 52.253906 -85.863281 49.785156 -86.53125 47.109375 -86.53125 C 42.804688 -86.53125 39.113281 -85.367188 36.03125 -83.046875 C 32.945312 -80.722656 31.40625 -77.234375 31.40625 -72.578125 C 31.40625 -68.972656 32.65625 -65.507812 35.15625 -62.1875 C 37.65625 -58.875 40.765625 -55.617188 44.484375 -52.421875 C 48.210938 -49.222656 52.253906 -45.96875 56.609375 -42.65625 C 60.972656 -39.34375 65.015625 -35.820312 68.734375 -32.09375 C 72.460938 -28.375 75.578125 -24.363281 78.078125 -20.0625 C 80.578125 -15.757812 81.828125 -11.050781 81.828125 -5.9375 Z M 81.828125 -5.9375 "/></g></g></g></g></g><g transform="matrix(1, 0, 0, 1, 101, 83)"><g clip-path="url(#3058cc4f2b)"><g fill="#000000" fill-opacity="1"><g transform="translate(1.443098, 122.917136)"><g><path d="M 81.828125 -5.9375 C 81.828125 -0.113281 80.894531 5.175781 79.03125 9.9375 C 77.175781 14.707031 74.53125 18.78125 71.09375 22.15625 C 67.664062 25.53125 63.566406 28.144531 58.796875 30 C 54.023438 31.863281 48.734375 32.796875 42.921875 32.796875 C 37.679688 32.796875 32.675781 31.984375 27.90625 30.359375 C 23.144531 28.734375 18.957031 26.378906 15.34375 23.296875 C 11.738281 20.210938 8.859375 16.457031 6.703125 12.03125 C 4.554688 7.613281 3.484375 2.613281 3.484375 -2.96875 C 3.484375 -8.3125 4.414062 -12.898438 6.28125 -16.734375 C 8.144531 -20.578125 10.675781 -23.75 13.875 -26.25 C 17.070312 -28.757812 20.820312 -30.625 25.125 -31.84375 C 29.425781 -33.0625 34.019531 -33.671875 38.90625 -33.671875 L 38.90625 -32.96875 C 34.71875 -32.738281 30.847656 -31.722656 27.296875 -29.921875 C 23.753906 -28.117188 20.734375 -25.765625 18.234375 -22.859375 C 15.734375 -19.953125 13.785156 -16.632812 12.390625 -12.90625 C 10.992188 -9.1875 10.296875 -5.234375 10.296875 -1.046875 C 10.296875 3.722656 11.078125 8.054688 12.640625 11.953125 C 14.210938 15.847656 16.394531 19.191406 19.1875 21.984375 C 21.976562 24.773438 25.351562 26.925781 29.3125 28.4375 C 33.269531 29.945312 37.628906 30.703125 42.390625 30.703125 C 51.816406 30.703125 59.175781 27.9375 64.46875 22.40625 C 69.757812 16.882812 72.40625 9.414062 72.40625 0 C 72.40625 -5 71.269531 -9.5625 69 -13.6875 C 66.726562 -17.820312 63.878906 -21.71875 60.453125 -25.375 C 57.023438 -29.039062 53.300781 -32.5625 49.28125 -35.9375 C 45.269531 -39.3125 41.546875 -42.6875 38.109375 -46.0625 C 34.679688 -49.4375 31.832031 -52.925781 29.5625 -56.53125 C 27.300781 -60.132812 26.171875 -64.03125 26.171875 -68.21875 C 26.171875 -71.238281 26.722656 -73.96875 27.828125 -76.40625 C 28.929688 -78.851562 30.441406 -80.890625 32.359375 -82.515625 C 34.285156 -84.148438 36.523438 -85.398438 39.078125 -86.265625 C 41.640625 -87.140625 44.375 -87.578125 47.28125 -87.578125 C 48.445312 -87.578125 49.582031 -87.460938 50.6875 -87.234375 C 51.789062 -87.003906 52.863281 -86.769531 53.90625 -86.53125 L 58.265625 -85.140625 C 60.597656 -84.441406 62.8125 -84.09375 64.90625 -84.09375 C 66.53125 -84.09375 67.804688 -84.734375 68.734375 -86.015625 L 67.515625 -65.78125 C 67.054688 -68.101562 66.242188 -70.484375 65.078125 -72.921875 C 63.910156 -75.367188 62.425781 -77.582031 60.625 -79.5625 C 58.820312 -81.539062 56.785156 -83.195312 54.515625 -84.53125 C 52.253906 -85.863281 49.785156 -86.53125 47.109375 -86.53125 C 42.804688 -86.53125 39.113281 -85.367188 36.03125 -83.046875 C 32.945312 -80.722656 31.40625 -77.234375 31.40625 -72.578125 C 31.40625 -68.972656 32.65625 -65.507812 35.15625 -62.1875 C 37.65625 -58.875 40.765625 -55.617188 44.484375 -52.421875 C 48.210938 -49.222656 52.253906 -45.96875 56.609375 -42.65625 C 60.972656 -39.34375 65.015625 -35.820312 68.734375 -32.09375 C 72.460938 -28.375 75.578125 -24.363281 78.078125 -20.0625 C 80.578125 -15.757812 81.828125 -11.050781 81.828125 -5.9375 Z M 81.828125 -5.9375 "/></g></g></g></g></g><g transform="matrix(1, 0, 0, 1, 191, 115)"><g clip-path="url(#8e9b41bbdc)"><g fill="#000000" fill-opacity="1"><g transform="translate(0.571862, 14.418443)"><g><path d="M 3.8125 0.09375 C 3.144531 0.09375 2.570312 -0.0390625 2.09375 -0.3125 C 1.613281 -0.59375 1.253906 -0.953125 1.015625 -1.390625 C 0.773438 -1.835938 0.65625 -2.300781 0.65625 -2.78125 L 0.65625 -2.84375 L 1.828125 -2.84375 L 1.828125 -2.78125 C 1.828125 -2.488281 1.894531 -2.195312 2.03125 -1.90625 C 2.175781 -1.613281 2.394531 -1.367188 2.6875 -1.171875 C 2.988281 -0.984375 3.375 -0.890625 3.84375 -0.890625 C 4.394531 -0.890625 4.847656 -1.03125 5.203125 -1.3125 C 5.566406 -1.59375 5.75 -1.972656 5.75 -2.453125 C 5.75 -2.859375 5.613281 -3.175781 5.34375 -3.40625 C 5.082031 -3.644531 4.75 -3.804688 4.34375 -3.890625 L 3.078125 -4.125 C 1.609375 -4.457031 0.875 -5.226562 0.875 -6.4375 C 0.875 -6.9375 0.992188 -7.375 1.234375 -7.75 C 1.472656 -8.125 1.804688 -8.410156 2.234375 -8.609375 C 2.671875 -8.816406 3.171875 -8.921875 3.734375 -8.921875 C 4.367188 -8.921875 4.914062 -8.789062 5.375 -8.53125 C 5.832031 -8.28125 6.175781 -7.945312 6.40625 -7.53125 C 6.644531 -7.125 6.765625 -6.695312 6.765625 -6.25 L 6.765625 -6.203125 L 5.578125 -6.203125 L 5.578125 -6.234375 C 5.578125 -6.484375 5.515625 -6.738281 5.390625 -7 C 5.273438 -7.269531 5.078125 -7.5 4.796875 -7.6875 C 4.515625 -7.882812 4.148438 -7.984375 3.703125 -7.984375 C 3.171875 -7.984375 2.75 -7.835938 2.4375 -7.546875 C 2.125 -7.253906 1.96875 -6.890625 1.96875 -6.453125 C 1.96875 -6.085938 2.085938 -5.785156 2.328125 -5.546875 C 2.578125 -5.316406 2.910156 -5.160156 3.328125 -5.078125 L 4.46875 -4.859375 C 6.070312 -4.535156 6.875 -3.75 6.875 -2.5 C 6.875 -1.988281 6.75 -1.535156 6.5 -1.140625 C 6.25 -0.753906 5.890625 -0.453125 5.421875 -0.234375 C 4.953125 -0.015625 4.414062 0.09375 3.8125 0.09375 Z M 3.8125 0.09375 "/></g></g></g><g fill="#000000" fill-opacity="1"><g transform="translate(13.139052, 14.418443)"><g><path d="M 7.546875 -8.734375 L 7.546875 0 L 6.453125 0 L 6.453125 -3.953125 L 2.015625 -3.953125 L 2.015625 0 L 0.9375 0 L 0.9375 -8.734375 L 2.015625 -8.734375 L 2.015625 -4.828125 L 6.453125 -4.828125 L 6.453125 -8.734375 Z M 7.546875 -8.734375 "/></g></g></g><g fill="#000000" fill-opacity="1"><g transform="translate(26.704631, 14.418443)"><g><path d="M 4.59375 0.09375 C 3.757812 0.09375 3.046875 -0.0976562 2.453125 -0.484375 C 1.859375 -0.867188 1.40625 -1.398438 1.09375 -2.078125 C 0.789062 -2.765625 0.640625 -3.539062 0.640625 -4.40625 C 0.640625 -5.269531 0.796875 -6.046875 1.109375 -6.734375 C 1.421875 -7.421875 1.875 -7.957031 2.46875 -8.34375 C 3.0625 -8.726562 3.769531 -8.921875 4.59375 -8.921875 C 5.40625 -8.921875 6.109375 -8.726562 6.703125 -8.34375 C 7.296875 -7.957031 7.742188 -7.421875 8.046875 -6.734375 C 8.359375 -6.054688 8.515625 -5.273438 8.515625 -4.390625 C 8.515625 -3.515625 8.359375 -2.738281 8.046875 -2.0625 C 7.742188 -1.394531 7.296875 -0.867188 6.703125 -0.484375 C 6.109375 -0.0976562 5.40625 0.09375 4.59375 0.09375 Z M 4.578125 -0.90625 C 5.148438 -0.90625 5.648438 -1.050781 6.078125 -1.34375 C 6.503906 -1.644531 6.828125 -2.0625 7.046875 -2.59375 C 7.273438 -3.125 7.390625 -3.734375 7.390625 -4.421875 C 7.390625 -5.097656 7.273438 -5.703125 7.046875 -6.234375 C 6.828125 -6.773438 6.503906 -7.191406 6.078125 -7.484375 C 5.648438 -7.785156 5.148438 -7.9375 4.578125 -7.9375 C 4.003906 -7.9375 3.503906 -7.785156 3.078125 -7.484375 C 2.660156 -7.179688 2.335938 -6.765625 2.109375 -6.234375 C 1.878906 -5.703125 1.765625 -5.097656 1.765625 -4.421875 C 1.765625 -3.734375 1.878906 -3.125 2.109375 -2.59375 C 2.335938 -2.070312 2.660156 -1.660156 3.078125 -1.359375 C 3.503906 -1.054688 4.003906 -0.90625 4.578125 -0.90625 Z M 4.578125 -0.90625 "/></g></g></g><g fill="#000000" fill-opacity="1"><g transform="translate(40.969091, 14.418443)"><g><path d="M 3.90625 -8.734375 C 4.613281 -8.734375 5.191406 -8.59375 5.640625 -8.3125 C 6.097656 -8.03125 6.425781 -7.671875 6.625 -7.234375 C 6.820312 -6.804688 6.921875 -6.351562 6.921875 -5.875 C 6.921875 -5.382812 6.820312 -4.925781 6.625 -4.5 C 6.425781 -4.070312 6.101562 -3.71875 5.65625 -3.4375 C 5.207031 -3.15625 4.625 -3.015625 3.90625 -3.015625 L 1.984375 -3.015625 L 1.984375 0 L 0.9375 0 L 0.9375 -8.734375 Z M 3.765625 -3.953125 C 4.367188 -3.953125 4.867188 -4.09375 5.265625 -4.375 C 5.671875 -4.664062 5.875 -5.164062 5.875 -5.875 C 5.875 -6.5625 5.671875 -7.046875 5.265625 -7.328125 C 4.867188 -7.617188 4.367188 -7.765625 3.765625 -7.765625 L 1.984375 -7.765625 L 1.984375 -3.953125 Z M 3.765625 -3.953125 "/></g></g></g><g fill="#000000" fill-opacity="1"><g transform="translate(0.571862, 31.058155)"><g><path d="M 3.8125 0.09375 C 3.144531 0.09375 2.570312 -0.0390625 2.09375 -0.3125 C 1.613281 -0.59375 1.253906 -0.953125 1.015625 -1.390625 C 0.773438 -1.835938 0.65625 -2.300781 0.65625 -2.78125 L 0.65625 -2.84375 L 1.828125 -2.84375 L 1.828125 -2.78125 C 1.828125 -2.488281 1.894531 -2.195312 2.03125 -1.90625 C 2.175781 -1.613281 2.394531 -1.367188 2.6875 -1.171875 C 2.988281 -0.984375 3.375 -0.890625 3.84375 -0.890625 C 4.394531 -0.890625 4.847656 -1.03125 5.203125 -1.3125 C 5.566406 -1.59375 5.75 -1.972656 5.75 -2.453125 C 5.75 -2.859375 5.613281 -3.175781 5.34375 -3.40625 C 5.082031 -3.644531 4.75 -3.804688 4.34375 -3.890625 L 3.078125 -4.125 C 1.609375 -4.457031 0.875 -5.226562 0.875 -6.4375 C 0.875 -6.9375 0.992188 -7.375 1.234375 -7.75 C 1.472656 -8.125 1.804688 -8.410156 2.234375 -8.609375 C 2.671875 -8.816406 3.171875 -8.921875 3.734375 -8.921875 C 4.367188 -8.921875 4.914062 -8.789062 5.375 -8.53125 C 5.832031 -8.28125 6.175781 -7.945312 6.40625 -7.53125 C 6.644531 -7.125 6.765625 -6.695312 6.765625 -6.25 L 6.765625 -6.203125 L 5.578125 -6.203125 L 5.578125 -6.234375 C 5.578125 -6.484375 5.515625 -6.738281 5.390625 -7 C 5.273438 -7.269531 5.078125 -7.5 4.796875 -7.6875 C 4.515625 -7.882812 4.148438 -7.984375 3.703125 -7.984375 C 3.171875 -7.984375 2.75 -7.835938 2.4375 -7.546875 C 2.125 -7.253906 1.96875 -6.890625 1.96875 -6.453125 C 1.96875 -6.085938 2.085938 -5.785156 2.328125 -5.546875 C 2.578125 -5.316406 2.910156 -5.160156 3.328125 -5.078125 L 4.46875 -4.859375 C 6.070312 -4.535156 6.875 -3.75 6.875 -2.5 C 6.875 -1.988281 6.75 -1.535156 6.5 -1.140625 C 6.25 -0.753906 5.890625 -0.453125 5.421875 -0.234375 C 4.953125 -0.015625 4.414062 0.09375 3.8125 0.09375 Z M 3.8125 0.09375 "/></g></g></g><g fill="#000000" fill-opacity="1"><g transform="translate(13.139052, 31.058155)"><g><path d="M 0.9375 -8.734375 L 2.515625 -8.734375 L 5.125 -2.046875 L 5.15625 -2.046875 L 7.75 -8.734375 L 9.34375 -8.734375 L 9.34375 0 L 8.28125 0 L 8.28125 -7.078125 L 8.234375 -7.078125 L 5.515625 0 L 4.75 0 L 2.046875 -7.078125 L 2 -7.078125 L 2 0 L 0.9375 0 Z M 0.9375 -8.734375 "/></g></g></g><g fill="#000000" fill-opacity="1"><g transform="translate(28.501732, 31.058155)"><g><path d="M 6.03125 -2.546875 L 2.46875 -2.546875 L 1.546875 0 L 0.453125 0 L 3.734375 -8.734375 L 4.75 -8.734375 L 8.0625 0 L 6.96875 0 Z M 5.71875 -3.40625 L 4.25 -7.359375 L 4.203125 -7.359375 L 2.78125 -3.40625 Z M 5.71875 -3.40625 "/></g></g></g><g fill="#000000" fill-opacity="1"><g transform="translate(42.079801, 31.058155)"><g><path d="M 3.578125 -3.484375 L 2.015625 -3.484375 L 2.015625 0 L 0.9375 0 L 0.9375 -8.734375 L 3.90625 -8.734375 C 4.613281 -8.734375 5.191406 -8.601562 5.640625 -8.34375 C 6.097656 -8.09375 6.425781 -7.765625 6.625 -7.359375 C 6.820312 -6.960938 6.921875 -6.546875 6.921875 -6.109375 C 6.921875 -5.492188 6.738281 -4.945312 6.375 -4.46875 C 6.019531 -3.988281 5.457031 -3.679688 4.6875 -3.546875 L 7 0 L 5.8125 0 Z M 2.015625 -4.40625 L 3.765625 -4.40625 C 4.359375 -4.40625 4.859375 -4.535156 5.265625 -4.796875 C 5.671875 -5.054688 5.875 -5.492188 5.875 -6.109375 C 5.875 -6.710938 5.671875 -7.140625 5.265625 -7.390625 C 4.859375 -7.640625 4.359375 -7.765625 3.765625 -7.765625 L 2.015625 -7.765625 Z M 2.015625 -4.40625 "/></g></g></g><g fill="#000000" fill-opacity="1"><g transform="translate(54.721875, 31.058155)"><g><path d="M 6.78125 -7.765625 L 4.203125 -7.765625 L 4.203125 0 L 3.140625 0 L 3.140625 -7.765625 L 0.5625 -7.765625 L 0.5625 -8.734375 L 6.78125 -8.734375 Z M 6.78125 -7.765625 "/></g></g></g></g></g></svg>